<svg width="16" height="16" viewBox="0 0 16 16" fill="none" xmlns="http://www.w3.org/2000/svg">
<g clip-path="url(#clip0_299_1538)">
<path d="M15.0369 10.625L13.4119 4.76811C13.0649 3.51525 12.3088 2.41445 11.2639 1.64092C10.2191 0.867381 8.94551 0.465563 7.64593 0.499413C6.34634 0.533263 5.09542 1.00083 4.09225 1.82771C3.08908 2.65459 2.39131 3.79326 2.11001 5.06249L0.853133 10.7187C0.792316 10.9928 0.7938 11.2769 0.857474 11.5503C0.921149 11.8237 1.04539 12.0793 1.22103 12.2982C1.39667 12.5172 1.61923 12.6939 1.87229 12.8154C2.12534 12.9368 2.40244 12.9999 2.68313 13H4.93751C5.08096 13.7064 5.46421 14.3415 6.02235 14.7977C6.58048 15.2539 7.27916 15.5031 8.00001 15.5031C8.72086 15.5031 9.41954 15.2539 9.97767 14.7977C10.5358 14.3415 10.9191 13.7064 11.0625 13H13.2313C13.5201 12.9999 13.805 12.933 14.0637 12.8046C14.3224 12.6763 14.548 12.4899 14.7228 12.26C14.8977 12.0301 15.017 11.763 15.0716 11.4793C15.1262 11.1957 15.1139 10.9033 15.0369 10.625ZM8.00001 14.25C7.6136 14.2484 7.23711 14.1274 6.92207 13.9037C6.60703 13.6799 6.36881 13.3643 6.24001 13H9.76001C9.63121 13.3643 9.39299 13.6799 9.07794 13.9037C8.7629 14.1274 8.38642 14.2484 8.00001 14.25ZM13.7281 11.5031C13.6698 11.5804 13.5942 11.643 13.5074 11.6859C13.4206 11.7287 13.325 11.7507 13.2281 11.75H2.68313C2.58955 11.75 2.49716 11.7289 2.41279 11.6884C2.32842 11.6479 2.25422 11.589 2.19567 11.516C2.13712 11.443 2.09571 11.3578 2.0745 11.2666C2.05329 11.1755 2.05282 11.0807 2.07313 10.9894L3.33001 5.33311C3.55148 4.33699 4.09958 3.44349 4.88717 2.79464C5.67476 2.14579 6.65665 1.77884 7.67674 1.75212C8.69684 1.7254 9.69659 2.04043 10.5171 2.64715C11.3376 3.25387 11.9317 4.11745 12.205 5.10061L13.83 10.9575C13.8565 11.0501 13.8611 11.1476 13.8435 11.2423C13.8258 11.337 13.7863 11.4263 13.7281 11.5031Z" fill="#EB2328"/>
</g>
<defs>
<clipPath id="clip0_299_1538">
<rect width="15" height="15" fill="white" transform="translate(0.5 0.5)"/>
</clipPath>
</defs>
</svg>
