<svg width="16" height="17" viewBox="0 0 16 17" fill="none" xmlns="http://www.w3.org/2000/svg">
<path d="M15.8045 0.695191C15.6795 0.57021 15.51 0.5 15.3332 0.5C15.1564 0.5 14.9869 0.57021 14.8619 0.695191L7.99986 7.55719L1.13786 0.695191C1.01284 0.57021 0.8433 0.5 0.666524 0.5C0.489748 0.5 0.320209 0.57021 0.195191 0.695191C0.0702103 0.820209 0 0.989748 0 1.16652C0 1.3433 0.0702103 1.51284 0.195191 1.63786L7.05719 8.49986L0.195191 15.3619C0.0702103 15.4869 0 15.6564 0 15.8332C0 16.01 0.0702103 16.1795 0.195191 16.3045C0.320209 16.4295 0.489748 16.4997 0.666524 16.4997C0.8433 16.4997 1.01284 16.4295 1.13786 16.3045L7.99986 9.44252L14.8619 16.3045C14.9869 16.4295 15.1564 16.4997 15.3332 16.4997C15.51 16.4997 15.6795 16.4295 15.8045 16.3045C15.9295 16.1795 15.9997 16.01 15.9997 15.8332C15.9997 15.6564 15.9295 15.4869 15.8045 15.3619L8.94252 8.49986L15.8045 1.63786C15.9295 1.51284 15.9997 1.3433 15.9997 1.16652C15.9997 0.989748 15.9295 0.820209 15.8045 0.695191Z" fill="#EB2328"/>
</svg>
