<svg width="15" height="16" viewBox="0 0 15 16" fill="none" xmlns="http://www.w3.org/2000/svg">
<g clip-path="url(#clip0_254_883)">
<path d="M15 8C15 11.7436 12.2572 14.8464 8.67188 15.4089V10.168H10.4194L10.752 8H8.67188V6.59316C8.67188 5.9999 8.9625 5.42188 9.89414 5.42188H10.8398V3.57617C10.8398 3.57617 9.98145 3.42969 9.16084 3.42969C7.44785 3.42969 6.32812 4.46797 6.32812 6.34766V8H4.42383V10.168H6.32812V15.4089C2.74277 14.8464 0 11.7436 0 8C0 3.85801 3.35801 0.5 7.5 0.5C11.642 0.5 15 3.85801 15 8Z" fill="#1877F2"/>
<path d="M10.4194 10.168L10.752 8H8.67188V6.59313C8.67188 6.00002 8.96244 5.42188 9.89411 5.42188H10.8398V3.57617C10.8398 3.57617 9.98156 3.42969 9.16099 3.42969C7.44782 3.42969 6.32812 4.46797 6.32812 6.34766V8H4.42383V10.168H6.32812V15.4089C6.70998 15.4688 7.10133 15.5 7.5 15.5C7.89867 15.5 8.29002 15.4688 8.67188 15.4089V10.168H10.4194Z" fill="white"/>
</g>
<defs>
<clipPath id="clip0_254_883">
<rect width="15" height="15" fill="white" transform="translate(0 0.5)"/>
</clipPath>
</defs>
</svg>
