<svg width="15" height="16" viewBox="0 0 15 16" fill="none" xmlns="http://www.w3.org/2000/svg">
<g clip-path="url(#clip0_254_876)">
<path d="M3.32432 9.56471L2.80219 11.5139L0.893818 11.5543C0.323496 10.4964 0 9.28615 0 8.00002C0 6.75634 0.302461 5.58353 0.838594 4.55084H0.839004L2.53799 4.86233L3.28225 6.55112C3.12647 7.00525 3.04157 7.49275 3.04157 8.00002C3.04163 8.55057 3.14136 9.07806 3.32432 9.56471Z" fill="#FBBB00"/>
<path d="M14.869 6.59888C14.9551 7.05257 15 7.52111 15 7.99997C15 8.53692 14.9436 9.06069 14.836 9.56592C14.4709 11.2851 13.5169 12.7864 12.1954 13.8487L12.195 13.8483L10.055 13.7391L9.75214 11.8485C10.6291 11.3342 11.3144 10.5294 11.6754 9.56592H7.66492V6.59888H11.7339H14.869Z" fill="#518EF8"/>
<path d="M12.1949 13.8483L12.1953 13.8488C10.91 14.8818 9.2773 15.5 7.49998 15.5C4.6438 15.5 2.16057 13.9036 0.893799 11.5542L3.3243 9.5647C3.95767 11.2551 5.5883 12.4584 7.49998 12.4584C8.32167 12.4584 9.09147 12.2363 9.75203 11.8485L12.1949 13.8483Z" fill="#28B446"/>
<path d="M12.2873 2.22664L9.85758 4.21578C9.17394 3.78846 8.36581 3.5416 7.50003 3.5416C5.54508 3.5416 3.88395 4.80011 3.28231 6.55109L0.839033 4.55082H0.838623C2.08685 2.14423 4.6014 0.5 7.50003 0.5C9.31981 0.5 10.9883 1.14822 12.2873 2.22664Z" fill="#F14336"/>
</g>
<defs>
<clipPath id="clip0_254_876">
<rect width="15" height="15" fill="white" transform="translate(0 0.5)"/>
</clipPath>
</defs>
</svg>
