<?xml version="1.0" encoding="UTF-8"?>
<svg id="Layer_1" data-name="Layer 1" xmlns="http://www.w3.org/2000/svg" viewBox="0 0 185.84 27.41">
  <defs>
    <style>
      .cls-1, .cls-2 {
        fill: #fefefe;
        stroke-width: 0px;
      }

      .cls-2 {
        fill-rule: evenodd;
      }
    </style>
  </defs>
  <g id="Layer_1-2" data-name="Layer_1">
    <path class="cls-2" d="M3.06,2.33c-1.67.25-3.06,1.39-3.06,3.08v16.89c0,.88.73,1.67,1.67,2.23.76.45,5.39,2.93,5.69,2.89l15.39-2.04c1.67-.22,3.06-1.38,3.06-3.06V5.41c0-.91-.41-1.77-1.1-2.35-.34-.28-5.74-3.06-5.86-3.06l-.81.12L3.06,2.33h0ZM7.34,26.77l15.4-2.04c1.24-.18,2.43-1,2.43-2.36V5.32c0-.68-.3-1.33-.83-1.78-.09-.06-.2-.12-.3-.18-.22-.13-.44-.25-.66-.36-.61-.33-1.22-.65-1.83-.97-.61-.32-1.24-.64-1.88-.96-.26-.13-.58-.31-.86-.43L3.06,2.97c-1.23.18-2.44.99-2.44,2.35v17.06c0,.68.8,1.29,1.31,1.6.34.2.68.39,1.04.58.56.31,1.13.61,1.7.91.58.31,1.17.61,1.76.9.22.11.43.21.66.31l.23.1h.02Z"/>
    <path class="cls-2" d="M7.48,26.39l15.04-2.01c1.15-.15,2.3-.92,2.3-2.19V5.5c0-.64-.28-1.25-.77-1.66-.09-.06-.19-.11-.28-.17-.21-.12-.43-.24-.64-.34-.6-.32-1.2-.64-1.8-.95-.6-.31-1.22-.63-1.83-.94-.27-.14-.53-.28-.81-.4L3.3,3.3c-1.15.17-2.3.92-2.3,2.21v16.69c0,.61.76,1.19,1.23,1.48.34.2.68.38,1.02.56.56.3,1.11.6,1.67.89.57.3,1.14.6,1.72.88.21.1.42.21.64.3l.2.09h0ZM9.14,19.3c-.54.03-1.01.4-1.17.92-.13.35.05.74.4.88.08.03.17.05.26.04.54-.03,1.02-.4,1.18-.92.13-.35-.05-.74-.4-.88-.08-.03-.17-.05-.26-.04h0ZM15.37,18.7c-.54.03-1.01.39-1.18.91-.13.35.05.74.4.88.08.03.17.05.26.04.55-.03,1.02-.4,1.18-.92.13-.35-.05-.74-.4-.87-.08-.03-.17-.04-.26-.04h0ZM18.24,19.4c-2.32-3.23-7.21-2.19-13.3.83,6.86-4.36,12.34-4.93,13.3-.83ZM4.39,7.94c7.09,2.15,3.95,8.7-2.09,13.87,6.36-6.81,5.58-11.61,2.09-13.87ZM7.89,8.08c1.27,11.46,10.47,6.37,15.92-2.42-.45.54-.91,1.05-1.36,1.53-4.62-.16-9.25.23-13.78,1.16,4.63-.57,9.08-.87,13.1-.44-.43.43-.87.84-1.3,1.22-3.51-.47-7.08-.38-10.56.27,3.45-.27,6.8-.3,9.81.36-.53.43-1.09.83-1.68,1.19-2.33-.64-4.77-.73-7.14-.27,2.22-.09,4.37.04,6.33.74-3.96,2.1-7.43,1.25-9.34-3.33h0Z"/>
    <path class="cls-1" d="M100.98,7.44c2.17,0,4.94.4,5.98,2.96,2.72-4.42-1.53-6.14-5.98-6.14-4.03,0-7.56,1.68-7.56,6.46v5.9c0,4.79,3.53,6.46,7.56,6.46,4.45,0,8.32-1.98,5.98-6.15-1.3,2.72-3.82,2.99-5.98,2.99s-3.51-.88-3.51-3.69v-5.16c0-2.78,1.44-3.63,3.51-3.63h0ZM119.43,14.74c2.33,0,2.66-1.73,2.66-3.46,0,0-.71.4-3.04.4h-4.44v-4.08h6.22c2.19,0,2.19-3.06,2.19-3.06h-12.45v16.32c0,1.93,3.04,1.93,3.04,1.93h7.23c2.15,0,2.19-2.86,2.19-3.03h-8.42v-5.02h4.82,0ZM130.35,6.14c-.94-1.53-2.78-1.58-5.1-1.58v16.55c0,1.93,4.05,1.93,4.05,1.93v-9.28c-.02-.98-.1-1.96-.26-2.93l6.05,10.26s.78,1.96,5.1,1.96V6.49c0-1.93-4.05-1.93-4.05-1.93v8.65c.02,1.1.13,2.2.34,3.28,0,0-6.13-10.35-6.13-10.35ZM153.14,7.61c2.36,0,2.66-1.73,2.66-3.46-.99.29-2.01.43-3.04.4h-7.92c-1.03.03-2.07-.11-3.06-.4,0,1.73.34,3.46,2.68,3.46h2.27v13.49c0,1.93,4.05,1.93,4.05,1.93V7.61h2.36,0ZM166.23,14.74c2.33,0,2.66-1.73,2.66-3.46,0,0-.71.4-3.04.4h-4.42v-4.08h6.22c2.19,0,2.19-3.06,2.19-3.06h-12.48v16.32c0,1.93,3.04,1.93,3.04,1.93h7.24c2.15,0,2.19-2.86,2.19-3.03h-8.42v-5.02h4.81ZM184.56,10.07v-.75c0-3.61-2.75-4.76-6.57-4.76h-5.91v16.54c0,1.86,4.05,1.93,4.05,1.93v-7.7c2.33,1.08,3.53,4.24,4.5,5.87.65,1.14,1.89,1.83,3.2,1.78.68-.08,1.35-.21,2-.4-1.74-2.63-2.57-5.62-5.54-7.7,2.73-.05,4.26-2.18,4.26-4.81h0ZM177.99,7.61c1.7,0,2.52.45,2.52,2.08s-.61,2.46-2.33,2.46h-2.04v-4.54h1.85,0Z"/>
    <path class="cls-1" d="M80.38,8.8s.83,2.38,1.17,3.7l.6,2.3h-3.55l.6-2.3c.35-1.32,1.18-3.7,1.18-3.7ZM80.38,3.9c-.62.39-3.38,3.09-4.9,7.96l-2.02,6.5c-.51,1.67-.85,2.94-1.38,3.74.58.21,1.18.35,1.79.41,2.44,0,3-1.81,3.59-3.67l.34-1.08h5.15l.34,1.08c.6,1.86,1.15,3.67,3.59,3.67.62-.06,1.23-.2,1.82-.41-.53-.81-.9-2.08-1.4-3.74l-2.04-6.52c-1.5-4.84-4.24-7.56-4.89-7.95h0ZM64.45,7.55c1.66,0,2.47.44,2.47,2.04s-.6,2.4-2.3,2.4h-2v-4.42h1.83ZM70.87,9.95v-.74c0-3.53-2.69-4.66-6.42-4.66h-5.78v16.18c0,1.81,3.96,1.88,3.96,1.88v-7.53c2.28,1.05,3.46,4.14,4.4,5.73.64,1.11,1.85,1.78,3.13,1.74.66-.08,1.31-.21,1.95-.39-1.7-2.57-2.51-5.49-5.41-7.52,2.69-.03,4.18-2.13,4.18-4.7h0ZM51.94,16.25c0,2.18-.55,3.45-3.4,3.45s-3.4-1.27-3.4-3.45v-5.56c0-2.18.56-3.43,3.4-3.43s3.4,1.25,3.4,3.43v5.56ZM55.9,10.37c0-3.8-2.35-6.1-7.35-6.1s-7.39,2.31-7.39,6.1v6.2c0,3.82,2.33,6.1,7.39,6.1s7.35-2.28,7.35-6.1v-6.2Z"/>
    <path class="cls-1" d="M38.11,6.14c0-1.85-3.54-1.85-3.74-1.85v13.36c-.04,2.22-2.8,2.44-3.55-.04-.31-1.02-1.36,1.23-2.68-.12.27,6.9,9.74,6.65,9.99.96l-.02-12.3h0Z"/>
  </g>
</svg>