<svg width="46" height="54" viewBox="0 0 46 54" fill="none" xmlns="http://www.w3.org/2000/svg">
<path d="M23 53.9998C21.1055 54.0095 19.2363 53.5652 17.5489 52.7041C15.8614 51.8429 14.4048 50.59 13.3011 49.0503C4.72708 37.223 0.378204 28.3318 0.378204 22.6218C0.378204 16.6221 2.76157 10.8682 7.00398 6.62577C11.2464 2.38336 17.0003 0 23 0C28.9997 0 34.7536 2.38336 38.996 6.62577C43.2384 10.8682 45.6218 16.6221 45.6218 22.6218C45.6218 28.3318 41.2729 37.223 32.6989 49.0503C31.5952 50.59 30.1386 51.8429 28.4511 52.7041C26.7637 53.5652 24.8945 54.0095 23 53.9998ZM23 4.91133C18.3033 4.91669 13.8006 6.7848 10.4795 10.1058C7.1585 13.4269 5.29039 17.9296 5.28503 22.6263C5.28503 27.1484 9.54391 35.5109 17.2742 46.1728C17.9305 47.0767 18.7915 47.8124 19.7866 48.3197C20.7818 48.827 21.883 49.0914 23 49.0914C24.117 49.0914 25.2182 48.827 26.2134 48.3197C27.2086 47.8124 28.0695 47.0767 28.7258 46.1728C36.4561 35.5109 40.715 27.1484 40.715 22.6263C40.7096 17.9296 38.8415 13.4269 35.5205 10.1058C32.1994 6.7848 27.6967 4.91669 23 4.91133Z" fill="#EB2328"/>
<path d="M23.7761 13.5C21.9963 13.5 20.2564 14.0278 18.7764 15.0166C17.2965 16.0055 16.1431 17.411 15.4619 19.0554C14.7808 20.6998 14.6026 22.5092 14.9498 24.2549C15.2971 26.0006 16.1542 27.6041 17.4127 28.8626C18.6713 30.1212 20.2748 30.9783 22.0205 31.3255C23.7662 31.6728 25.5756 31.4946 27.22 30.8134C28.8644 30.1323 30.2699 28.9788 31.2587 27.4989C32.2476 26.019 32.7754 24.2791 32.7754 22.4992C32.7754 20.1125 31.8272 17.8235 30.1396 16.1358C28.4519 14.4481 26.1629 13.5 23.7761 13.5ZM23.7761 26.9988C22.8862 26.9988 22.0163 26.7349 21.2763 26.2405C20.5363 25.7461 19.9596 25.0433 19.619 24.2212C19.2785 23.399 19.1894 22.4942 19.363 21.6214C19.5366 20.7486 19.9652 19.9468 20.5944 19.3175C21.2237 18.6882 22.0255 18.2597 22.8983 18.0861C23.7712 17.9125 24.6759 18.0016 25.4981 18.3421C26.3203 18.6827 27.023 19.2594 27.5174 19.9994C28.0119 20.7393 28.2758 21.6093 28.2758 22.4992C28.2758 23.6926 27.8017 24.8371 26.9579 25.6809C26.114 26.5248 24.9695 26.9988 23.7761 26.9988Z" fill="#EB2328"/>
</svg>
