<!DOCTYPE svg PUBLIC "-//W3C//DTD SVG 1.1//EN" "http://www.w3.org/Graphics/SVG/1.1/DTD/svg11.dtd">
<!-- Uploaded to: SVG Repo, www.svgrepo.com, Transformed by: SVG Repo Mixer Tools -->
<svg fill="#EB2328" width="800px" height="800px" viewBox="0 0 24 24" xmlns="http://www.w3.org/2000/svg">
<g id="SVGRepo_bgCarrier" stroke-width="0"/>
<g id="SVGRepo_tracerCarrier" stroke-linecap="round" stroke-linejoin="round"/>
<g id="SVGRepo_iconCarrier">
<path d="m10.998 16 5-4-5-4v3h-9v2h9z"/>
<path d="M12.999 2.999a8.938 8.938 0 0 0-6.364 2.637L8.049 7.05c1.322-1.322 3.08-2.051 4.95-2.051s3.628.729 4.95 2.051S20 10.13 20 12s-.729 3.628-2.051 4.95-3.08 2.051-4.95 2.051-3.628-.729-4.95-2.051l-1.414 1.414c1.699 1.7 3.959 2.637 6.364 2.637s4.665-.937 6.364-2.637C21.063 16.665 22 14.405 22 12s-.937-4.665-2.637-6.364a8.938 8.938 0 0 0-6.364-2.637z"/>
</g>
</svg>