<svg width="20" height="20" viewBox="0 0 20 20" fill="none" xmlns="http://www.w3.org/2000/svg">
<path d="M5.00001 15.8333V8.33331C5.00001 7.00723 5.52679 5.73546 6.46448 4.79778C7.40216 3.8601 8.67393 3.33331 10 3.33331C11.3261 3.33331 12.5979 3.8601 13.5355 4.79778C14.4732 5.73546 15 7.00723 15 8.33331V15.8333M5.00001 15.8333H15M5.00001 15.8333H3.33334M15 15.8333H16.6667M9.16668 18.3333H10.8333" stroke="#EB2328" stroke-width="2" stroke-linecap="round" stroke-linejoin="round"/>
<path d="M10 3.33332C10.4603 3.33332 10.8334 2.96023 10.8334 2.49999C10.8334 2.03975 10.4603 1.66666 10 1.66666C9.53978 1.66666 9.16669 2.03975 9.16669 2.49999C9.16669 2.96023 9.53978 3.33332 10 3.33332Z" stroke="#EB2328" stroke-width="2"/>
</svg>
