<svg width="16" height="19" viewBox="0 0 16 19" fill="none" xmlns="http://www.w3.org/2000/svg">
<path d="M3.00004 15.3333V7.83334C3.00004 6.50726 3.52682 5.23549 4.46451 4.29781C5.40219 3.36013 6.67396 2.83334 8.00004 2.83334C9.32612 2.83334 10.5979 3.36013 11.5356 4.29781C12.4733 5.23549 13 6.50726 13 7.83334V15.3333M3.00004 15.3333H13M3.00004 15.3333H1.33337M13 15.3333H14.6667M7.16671 17.8333H8.83337" stroke="white" stroke-width="2" stroke-linecap="round" stroke-linejoin="round"/>
<path d="M8.00008 2.83334C8.46032 2.83334 8.83341 2.46024 8.83341 2.00001C8.83341 1.53977 8.46032 1.16667 8.00008 1.16667C7.53984 1.16667 7.16675 1.53977 7.16675 2.00001C7.16675 2.46024 7.53984 2.83334 8.00008 2.83334Z" stroke="white" stroke-width="2"/>
</svg>
