<svg width="42" height="42" viewBox="0 0 42 42" fill="none" xmlns="http://www.w3.org/2000/svg">
<rect width="42" height="42" rx="21" fill="#FFF2F2"/>
<g clip-path="url(#clip0_254_1011)">
<path d="M27.7681 19.2325L25.3437 16.8081C25.2259 16.6943 25.068 16.6313 24.9041 16.6327C24.7402 16.6341 24.5835 16.6999 24.4676 16.8157C24.3517 16.9316 24.286 17.0884 24.2846 17.2523C24.2831 17.4161 24.3461 17.574 24.46 17.6919L26.8844 20.1163C26.9564 20.1897 27.0193 20.2715 27.0719 20.36C27.0625 20.36 27.055 20.355 27.0456 20.355L17.2431 20.375C17.0773 20.375 16.9184 20.4409 16.8012 20.5581C16.684 20.6753 16.6181 20.8342 16.6181 21C16.6181 21.1658 16.684 21.3247 16.8012 21.4419C16.9184 21.5592 17.0773 21.625 17.2431 21.625L27.0419 21.605C27.0594 21.605 27.0737 21.5963 27.0906 21.595C27.0352 21.7007 26.9649 21.798 26.8819 21.8838L24.4575 24.3081C24.3978 24.3658 24.3502 24.4347 24.3174 24.511C24.2847 24.5873 24.2674 24.6693 24.2667 24.7523C24.266 24.8352 24.2818 24.9175 24.3132 24.9943C24.3446 25.0712 24.391 25.1409 24.4497 25.1996C24.5084 25.2583 24.5782 25.3047 24.655 25.3361C24.7318 25.3676 24.8141 25.3834 24.8971 25.3827C24.9801 25.3819 25.0621 25.3647 25.1384 25.3319C25.2146 25.2992 25.2836 25.2516 25.3412 25.1919L27.7656 22.7675C28.2343 22.2987 28.4976 21.6629 28.4976 21C28.4976 20.3371 28.2343 19.7013 27.7656 19.2325H27.7681Z" fill="#EB2328"/>
<path d="M17.875 27.25H16.625C16.1277 27.25 15.6508 27.0525 15.2992 26.7008C14.9475 26.3492 14.75 25.8723 14.75 25.375V16.625C14.75 16.1277 14.9475 15.6508 15.2992 15.2992C15.6508 14.9475 16.1277 14.75 16.625 14.75H17.875C18.0408 14.75 18.1997 14.6842 18.3169 14.5669C18.4342 14.4497 18.5 14.2908 18.5 14.125C18.5 13.9592 18.4342 13.8003 18.3169 13.6831C18.1997 13.5658 18.0408 13.5 17.875 13.5H16.625C15.7965 13.501 15.0022 13.8306 14.4164 14.4164C13.8306 15.0022 13.501 15.7965 13.5 16.625L13.5 25.375C13.501 26.2035 13.8306 26.9978 14.4164 27.5836C15.0022 28.1694 15.7965 28.499 16.625 28.5H17.875C18.0408 28.5 18.1997 28.4342 18.3169 28.3169C18.4342 28.1997 18.5 28.0408 18.5 27.875C18.5 27.7092 18.4342 27.5503 18.3169 27.4331C18.1997 27.3158 18.0408 27.25 17.875 27.25Z" fill="#EB2328"/>
</g>
<defs>
<clipPath id="clip0_254_1011">
<rect width="15" height="15" fill="white" transform="translate(13.5 13.5)"/>
</clipPath>
</defs>
</svg>
