<svg width="42" height="42" viewBox="0 0 42 42" fill="none" xmlns="http://www.w3.org/2000/svg">
<rect width="42" height="42" rx="21" fill="#FFF2F2"/>
<g clip-path="url(#clip0_254_1417)">
<path d="M17.875 28.5H16.625C14.9019 28.5 13.5 27.0981 13.5 25.375V24.125C13.5 23.7794 13.7794 23.5 14.125 23.5C14.4706 23.5 14.75 23.7794 14.75 24.125V25.375C14.75 26.4087 15.5912 27.25 16.625 27.25H17.875C18.2206 27.25 18.5 27.5294 18.5 27.875C18.5 28.2206 18.2206 28.5 17.875 28.5ZM28.5 25.375V24.125C28.5 23.7794 28.2206 23.5 27.875 23.5C27.5294 23.5 27.25 23.7794 27.25 24.125V25.375C27.25 26.4087 26.4087 27.25 25.375 27.25H24.125C23.7794 27.25 23.5 27.5294 23.5 27.875C23.5 28.2206 23.7794 28.5 24.125 28.5H25.375C27.0981 28.5 28.5 27.0981 28.5 25.375ZM28.5 17.875V16.625C28.5 14.9019 27.0981 13.5 25.375 13.5H24.125C23.7794 13.5 23.5 13.7794 23.5 14.125C23.5 14.4706 23.7794 14.75 24.125 14.75H25.375C26.4087 14.75 27.25 15.5912 27.25 16.625V17.875C27.25 18.2206 27.5294 18.5 27.875 18.5C28.2206 18.5 28.5 18.2206 28.5 17.875ZM14.75 17.875V16.625C14.75 15.5912 15.5912 14.75 16.625 14.75H17.875C18.2206 14.75 18.5 14.4706 18.5 14.125C18.5 13.7794 18.2206 13.5 17.875 13.5H16.625C14.9019 13.5 13.5 14.9019 13.5 16.625V17.875C13.5 18.2206 13.7794 18.5 14.125 18.5C14.4706 18.5 14.75 18.2206 14.75 17.875ZM24.75 19.75V22.25C24.75 23.2837 23.9087 24.125 22.875 24.125H19.125C18.0912 24.125 17.25 23.2837 17.25 22.25V19.75C17.25 18.7256 18.0756 17.8913 19.0956 17.8756L19.5306 17.1988C19.7606 16.84 20.1538 16.625 20.5819 16.625H21.4181C21.8462 16.625 22.2388 16.84 22.47 17.1994L22.9044 17.8756C23.925 17.8913 24.75 18.7256 24.75 19.75ZM22.25 21C22.25 20.3094 21.6906 19.75 21 19.75C20.3094 19.75 19.75 20.3094 19.75 21C19.75 21.6906 20.3094 22.25 21 22.25C21.6906 22.25 22.25 21.6906 22.25 21Z" fill="#EB2328"/>
</g>
<defs>
<clipPath id="clip0_254_1417">
<rect width="15" height="15" fill="white" transform="translate(13.5 13.5)"/>
</clipPath>
</defs>
</svg>
