<svg width="15" height="16" viewBox="0 0 15 16" fill="none" xmlns="http://www.w3.org/2000/svg">
<g clip-path="url(#clip0_285_1049)">
<path d="M13.125 3H11.1875C11.0424 2.29463 10.6586 1.66084 10.1008 1.20545C9.54293 0.750056 8.84513 0.500909 8.125 0.5L6.875 0.5C6.15487 0.500909 5.45707 0.750056 4.89922 1.20545C4.34136 1.66084 3.95756 2.29463 3.8125 3H1.875C1.70924 3 1.55027 3.06585 1.43306 3.18306C1.31585 3.30027 1.25 3.45924 1.25 3.625C1.25 3.79076 1.31585 3.94973 1.43306 4.06694C1.55027 4.18415 1.70924 4.25 1.875 4.25H2.5V12.375C2.50099 13.2035 2.83055 13.9978 3.41639 14.5836C4.00222 15.1694 4.7965 15.499 5.625 15.5H9.375C10.2035 15.499 10.9978 15.1694 11.5836 14.5836C12.1695 13.9978 12.499 13.2035 12.5 12.375V4.25H13.125C13.2908 4.25 13.4497 4.18415 13.5669 4.06694C13.6842 3.94973 13.75 3.79076 13.75 3.625C13.75 3.45924 13.6842 3.30027 13.5669 3.18306C13.4497 3.06585 13.2908 3 13.125 3ZM6.875 1.75H8.125C8.51267 1.75047 8.89071 1.87086 9.20726 2.09465C9.52381 2.31844 9.76339 2.63468 9.89313 3H5.10688C5.23661 2.63468 5.47619 2.31844 5.79274 2.09465C6.1093 1.87086 6.48733 1.75047 6.875 1.75ZM11.25 12.375C11.25 12.8723 11.0525 13.3492 10.7008 13.7008C10.3492 14.0525 9.87228 14.25 9.375 14.25H5.625C5.12772 14.25 4.65081 14.0525 4.29918 13.7008C3.94754 13.3492 3.75 12.8723 3.75 12.375V4.25H11.25V12.375Z" fill="#EB2328"/>
<path d="M6.25 11.75C6.41576 11.75 6.57473 11.6842 6.69194 11.5669C6.80915 11.4497 6.875 11.2908 6.875 11.125V7.375C6.875 7.20924 6.80915 7.05027 6.69194 6.93306C6.57473 6.81585 6.41576 6.75 6.25 6.75C6.08424 6.75 5.92527 6.81585 5.80806 6.93306C5.69085 7.05027 5.625 7.20924 5.625 7.375V11.125C5.625 11.2908 5.69085 11.4497 5.80806 11.5669C5.92527 11.6842 6.08424 11.75 6.25 11.75Z" fill="#EB2328"/>
<path d="M8.75 11.75C8.91576 11.75 9.07473 11.6842 9.19194 11.5669C9.30915 11.4497 9.375 11.2908 9.375 11.125V7.375C9.375 7.20924 9.30915 7.05027 9.19194 6.93306C9.07473 6.81585 8.91576 6.75 8.75 6.75C8.58424 6.75 8.42527 6.81585 8.30806 6.93306C8.19085 7.05027 8.125 7.20924 8.125 7.375V11.125C8.125 11.2908 8.19085 11.4497 8.30806 11.5669C8.42527 11.6842 8.58424 11.75 8.75 11.75Z" fill="#EB2328"/>
</g>
<defs>
<clipPath id="clip0_285_1049">
<rect width="15" height="15" fill="white" transform="translate(0 0.5)"/>
</clipPath>
</defs>
</svg>
